<svg xmlns="http://www.w3.org/2000/svg" viewBox="0 0 160 160" role="img" aria-labelledby="title desc">
  <title id="title">Heart sticker</title>
  <desc id="desc">A cheerful heart with small shine marks.</desc>
  <rect width="160" height="160" rx="32" fill="#fdf2f8"/>
  <path d="M80 129s-48-28-58-62c-6-21 6-39 26-39 13 0 24 8 32 20 8-12 19-20 32-20 20 0 32 18 26 39-10 34-58 62-58 62z" fill="#fb7185"/>
  <path d="M56 46c-10 0-18 8-18 19" fill="none" stroke="#ffe4e6" stroke-width="10" stroke-linecap="round"/>
  <circle cx="67" cy="78" r="4" fill="#881337"/>
  <circle cx="94" cy="78" r="4" fill="#881337"/>
  <path d="M70 93c6 5 15 5 21 0" fill="none" stroke="#881337" stroke-width="5" stroke-linecap="round"/>
</svg>
