<svg xmlns="http://www.w3.org/2000/svg" viewBox="0 0 160 160" role="img" aria-labelledby="title desc">
  <title id="title">Spark sticker</title>
  <desc id="desc">A bright star burst with a smiling center.</desc>
  <rect width="160" height="160" rx="32" fill="#fff7ed"/>
  <path d="M80 18l13 38 40-13-21 35 32 25-40 6 3 41-27-31-27 31 3-41-40-6 32-25-21-35 40 13z" fill="#facc15"/>
  <path d="M80 31l10 31 32-10-17 28 26 20-33 5 3 33-21-25-21 25 3-33-33-5 26-20-17-28 32 10z" fill="#fb923c"/>
  <circle cx="80" cy="83" r="25" fill="#fff7ed"/>
  <circle cx="70" cy="78" r="4" fill="#7c2d12"/>
  <circle cx="90" cy="78" r="4" fill="#7c2d12"/>
  <path d="M68 91c7 8 17 8 24 0" fill="none" stroke="#7c2d12" stroke-width="5" stroke-linecap="round"/>
</svg>
