<svg xmlns="http://www.w3.org/2000/svg" viewBox="0 0 160 160" role="img" aria-labelledby="title desc">
  <title id="title">Thumbs up sticker</title>
  <desc id="desc">A bold thumbs up sign inside a blue tile.</desc>
  <rect width="160" height="160" rx="32" fill="#eff6ff"/>
  <path d="M61 72h-23c-6 0-11 5-11 11v38c0 6 5 11 11 11h23z" fill="#60a5fa"/>
  <path d="M61 72c12-12 19-27 21-45 1-7 8-11 15-8 8 3 12 12 10 20l-5 24h23c11 0 19 10 17 21l-7 34c-2 9-10 15-19 15H61z" fill="#fbbf24"/>
  <path d="M61 72v61" stroke="#d97706" stroke-width="7" stroke-linecap="round"/>
  <path d="M101 63h23c8 0 14 7 13 15" fill="none" stroke="#f59e0b" stroke-width="7" stroke-linecap="round"/>
  <circle cx="45" cy="104" r="5" fill="#1d4ed8"/>
</svg>
